# xmcd CD database file
#
# Track frame offsets:
#	150
#	19920
#	49085
#	77725
#	111690
#	141535
#
# Disc length: 2159 seconds
#
# Revision: 6
# Processed by: cddbd v1.5.2PL0 Copyright (c) Steve Scherf et al.
# Submitted via: CDex 1.50Beta7
#
DISCID=56086d06
DTITLE=Maynard Ferguson - Conquistador
DYEAR=1977
DGENRE=Jazz
TTITLE0=Gonna Fly Now
TTITLE1=Mister Mellow
TTITLE2=Theme From Star Trek
TTITLE3=Conquistador
TTITLE4=Soar Like An Eagle
TTITLE5=The Fly
EXTD=) 1977 CBS Inc. YEAR: 1977
EXTT0=
EXTT1=
EXTT2=
EXTT3=
EXTT4=
EXTT5=
PLAYORDER=
